<svg xmlns="http://www.w3.org/2000/svg" xmlns:xlink="http://www.w3.org/1999/xlink" width="500" zoomAndPan="magnify" viewBox="0 0 375 374.999991" height="500" preserveAspectRatio="xMidYMid meet" version="1.0"><defs><clipPath id="bb9a15e011"><path d="M 4.332031 51.5625 L 169 51.5625 L 169 272 L 4.332031 272 Z M 4.332031 51.5625 " clip-rule="nonzero"/></clipPath><clipPath id="937553a332"><path d="M 92 51.5625 L 365.832031 51.5625 L 365.832031 272 L 92 272 Z M 92 51.5625 " clip-rule="nonzero"/></clipPath></defs><g clip-path="url(#bb9a15e011)"><path fill="#f6e7d8" d="M 128.613281 157.710938 L 168.089844 157.710938 L 128.609375 51.648438 L 86.335938 51.648438 L 47.804688 155.15625 L 4.324219 271.972656 L 43.796875 271.972656 L 87.28125 155.15625 L 107.472656 100.914062 L 128.613281 157.710938 " fill-opacity="1" fill-rule="nonzero"/></g><g clip-path="url(#937553a332)"><path fill="#f6e7d8" d="M 255.890625 51.648438 L 152.503906 51.648438 L 211.648438 210.539062 L 251.125 210.539062 L 205.773438 88.703125 L 255.890625 88.703125 C 296.1875 88.703125 328.855469 121.4375 328.855469 161.8125 C 328.855469 202.1875 296.1875 234.917969 255.890625 234.917969 L 196.828125 234.917969 L 186.085938 206.0625 L 186.082031 206.0625 L 177.167969 182.105469 L 104.800781 182.105469 L 92.425781 219.160156 L 151.488281 219.160156 L 171.144531 271.972656 L 257.699219 271.972656 L 257.691406 271.953125 C 317.582031 270.988281 365.839844 222.050781 365.839844 161.8125 C 365.839844 100.96875 316.617188 51.648438 255.890625 51.648438 " fill-opacity="1" fill-rule="nonzero"/></g></svg>