<svg xmlns="http://www.w3.org/2000/svg" xmlns:xlink="http://www.w3.org/1999/xlink" width="500" zoomAndPan="magnify" viewBox="0 0 375 374.999991" height="500" preserveAspectRatio="xMidYMid meet" version="1.0"><defs><clipPath id="0681d48c1f"><path d="M 25 12 L 375 12 L 375 349.5 L 25 349.5 Z M 25 12 " clip-rule="nonzero"/></clipPath><clipPath id="c4e36d236a"><path d="M 0 284 L 117 284 L 117 349.5 L 0 349.5 Z M 0 284 " clip-rule="nonzero"/></clipPath></defs><g clip-path="url(#0681d48c1f)"><path fill="#ffd33a" d="M 323.277344 349.460938 L 323.277344 336.519531 L 187.5 336.519531 C 98.195312 336.519531 25.863281 264.125 25.863281 174.75 C 25.863281 85.375 98.195312 12.980469 187.5 12.980469 C 276.804688 12.980469 349.136719 85.375 349.136719 174.75 C 349.136719 205.566406 340.570312 234.363281 325.621094 258.871094 L 277.128906 258.871094 C 297.738281 236.867188 310.34375 207.265625 310.34375 174.75 C 310.34375 106.886719 255.386719 51.804688 187.5 51.804688 C 119.613281 51.804688 64.65625 106.886719 64.65625 174.75 C 64.65625 242.613281 119.691406 297.695312 187.5 297.695312 L 323.277344 297.695312 L 323.277344 284.753906 L 375 317.105469 Z M 323.277344 349.460938 " fill-opacity="1" fill-rule="nonzero"/></g><path fill="#2978b8" d="M 249.164062 155.335938 C 247.871094 151.292969 246.253906 147.410156 244.234375 143.769531 L 258.621094 129.453125 L 232.757812 103.570312 L 218.453125 117.886719 C 214.816406 115.867188 210.9375 114.25 206.898438 112.953125 L 206.898438 90.628906 L 168.101562 90.628906 L 168.101562 113.035156 C 164.0625 114.328125 160.183594 115.949219 156.546875 117.96875 L 142.242188 103.570312 L 116.378906 129.453125 L 130.683594 143.769531 C 128.664062 147.410156 127.046875 151.292969 125.753906 155.335938 L 103.449219 155.335938 L 103.449219 194.164062 L 125.835938 194.164062 C 127.128906 198.207031 128.746094 202.089844 130.765625 205.730469 L 116.378906 220.046875 L 142.242188 245.929688 L 156.546875 231.613281 C 160.183594 233.632812 164.0625 235.25 168.101562 236.546875 L 168.101562 258.871094 L 206.898438 258.871094 L 206.898438 236.464844 C 210.9375 235.171875 214.816406 233.550781 218.453125 231.53125 L 232.757812 245.929688 L 258.621094 220.046875 L 244.316406 205.730469 C 246.335938 202.089844 247.953125 198.207031 249.246094 194.164062 L 271.550781 194.164062 L 271.550781 155.335938 Z M 249.164062 155.335938 " fill-opacity="1" fill-rule="nonzero"/><path fill="#e9eef2" d="M 232.757812 174.75 C 232.757812 176.234375 232.6875 177.714844 232.539062 179.191406 C 232.394531 180.664062 232.179688 182.132812 231.890625 183.585938 C 231.601562 185.042969 231.238281 186.480469 230.808594 187.898438 C 230.378906 189.316406 229.878906 190.714844 229.3125 192.082031 C 228.746094 193.453125 228.113281 194.792969 227.414062 196.101562 C 226.714844 197.410156 225.953125 198.679688 225.132812 199.914062 C 224.308594 201.148438 223.425781 202.339844 222.484375 203.484375 C 221.546875 204.632812 220.550781 205.730469 219.503906 206.777344 C 218.453125 207.828125 217.359375 208.824219 216.210938 209.761719 C 215.066406 210.703125 213.875 211.585938 212.644531 212.410156 C 211.410156 213.234375 210.140625 213.996094 208.835938 214.695312 C 207.527344 215.394531 206.1875 216.03125 204.820312 216.597656 C 203.449219 217.164062 202.054688 217.664062 200.636719 218.09375 C 199.21875 218.523438 197.785156 218.886719 196.328125 219.175781 C 194.875 219.464844 193.410156 219.679688 191.9375 219.828125 C 190.460938 219.972656 188.980469 220.046875 187.5 220.046875 C 186.019531 220.046875 184.539062 219.972656 183.0625 219.828125 C 181.589844 219.679688 180.125 219.464844 178.671875 219.175781 C 177.214844 218.886719 175.78125 218.523438 174.363281 218.09375 C 172.945312 217.664062 171.550781 217.164062 170.179688 216.597656 C 168.8125 216.03125 167.472656 215.394531 166.164062 214.695312 C 164.859375 213.996094 163.589844 213.234375 162.355469 212.410156 C 161.125 211.585938 159.933594 210.703125 158.789062 209.761719 C 157.640625 208.824219 156.546875 207.828125 155.496094 206.777344 C 154.449219 205.730469 153.453125 204.632812 152.515625 203.484375 C 151.574219 202.339844 150.691406 201.148438 149.867188 199.914062 C 149.046875 198.679688 148.285156 197.410156 147.585938 196.101562 C 146.886719 194.792969 146.253906 193.453125 145.6875 192.082031 C 145.121094 190.714844 144.621094 189.316406 144.191406 187.898438 C 143.761719 186.480469 143.398438 185.042969 143.109375 183.585938 C 142.820312 182.132812 142.605469 180.664062 142.460938 179.191406 C 142.3125 177.714844 142.242188 176.234375 142.242188 174.75 C 142.242188 173.265625 142.3125 171.785156 142.460938 170.308594 C 142.605469 168.832031 142.820312 167.367188 143.109375 165.914062 C 143.398438 164.457031 143.761719 163.019531 144.191406 161.601562 C 144.621094 160.183594 145.121094 158.785156 145.6875 157.417969 C 146.253906 156.046875 146.886719 154.707031 147.585938 153.398438 C 148.285156 152.089844 149.046875 150.820312 149.867188 149.585938 C 150.691406 148.351562 151.574219 147.160156 152.515625 146.015625 C 153.453125 144.867188 154.449219 143.769531 155.496094 142.722656 C 156.546875 141.671875 157.640625 140.675781 158.789062 139.738281 C 159.933594 138.796875 161.125 137.914062 162.355469 137.089844 C 163.589844 136.265625 164.859375 135.503906 166.164062 134.804688 C 167.472656 134.105469 168.8125 133.46875 170.179688 132.902344 C 171.550781 132.335938 172.945312 131.835938 174.363281 131.40625 C 175.78125 130.976562 177.214844 130.613281 178.671875 130.324219 C 180.125 130.035156 181.589844 129.820312 183.0625 129.671875 C 184.539062 129.527344 186.019531 129.453125 187.5 129.453125 C 188.980469 129.453125 190.460938 129.527344 191.9375 129.671875 C 193.410156 129.820312 194.875 130.035156 196.328125 130.324219 C 197.785156 130.613281 199.21875 130.976562 200.636719 131.40625 C 202.054688 131.835938 203.449219 132.335938 204.820312 132.902344 C 206.1875 133.46875 207.527344 134.105469 208.835938 134.804688 C 210.140625 135.503906 211.410156 136.265625 212.644531 137.089844 C 213.875 137.914062 215.066406 138.796875 216.210938 139.738281 C 217.359375 140.675781 218.453125 141.671875 219.503906 142.722656 C 220.550781 143.769531 221.546875 144.867188 222.484375 146.015625 C 223.425781 147.160156 224.308594 148.351562 225.132812 149.585938 C 225.953125 150.820312 226.714844 152.089844 227.414062 153.398438 C 228.113281 154.707031 228.746094 156.046875 229.3125 157.417969 C 229.878906 158.785156 230.378906 160.183594 230.808594 161.601562 C 231.238281 163.019531 231.601562 164.457031 231.890625 165.914062 C 232.179688 167.367188 232.394531 168.832031 232.539062 170.308594 C 232.6875 171.785156 232.757812 173.265625 232.757812 174.75 Z M 232.757812 174.75 " fill-opacity="1" fill-rule="nonzero"/><path fill="#2978b8" d="M 206.898438 174.75 C 206.898438 175.386719 206.867188 176.019531 206.804688 176.652344 C 206.742188 177.285156 206.648438 177.914062 206.523438 178.535156 C 206.398438 179.160156 206.246094 179.777344 206.0625 180.386719 C 205.875 180.992188 205.664062 181.589844 205.421875 182.179688 C 205.175781 182.765625 204.90625 183.339844 204.605469 183.902344 C 204.308594 184.460938 203.980469 185.007812 203.628906 185.535156 C 203.273438 186.0625 202.898438 186.574219 202.492188 187.066406 C 202.089844 187.554688 201.664062 188.027344 201.214844 188.476562 C 200.765625 188.925781 200.296875 189.351562 199.804688 189.753906 C 199.3125 190.160156 198.804688 190.539062 198.277344 190.890625 C 197.746094 191.242188 197.203125 191.570312 196.644531 191.871094 C 196.082031 192.167969 195.507812 192.441406 194.921875 192.683594 C 194.335938 192.929688 193.738281 193.140625 193.128906 193.328125 C 192.523438 193.511719 191.90625 193.664062 191.285156 193.789062 C 190.660156 193.914062 190.035156 194.007812 189.402344 194.070312 C 188.769531 194.132812 188.136719 194.164062 187.5 194.164062 C 186.863281 194.164062 186.230469 194.132812 185.597656 194.070312 C 184.964844 194.007812 184.339844 193.914062 183.714844 193.789062 C 183.09375 193.664062 182.476562 193.511719 181.871094 193.328125 C 181.261719 193.140625 180.664062 192.929688 180.078125 192.683594 C 179.492188 192.441406 178.917969 192.167969 178.355469 191.871094 C 177.796875 191.570312 177.253906 191.242188 176.722656 190.890625 C 176.195312 190.539062 175.6875 190.160156 175.195312 189.753906 C 174.703125 189.351562 174.234375 188.925781 173.785156 188.476562 C 173.335938 188.027344 172.910156 187.554688 172.507812 187.066406 C 172.101562 186.574219 171.726562 186.0625 171.371094 185.535156 C 171.019531 185.007812 170.691406 184.460938 170.394531 183.902344 C 170.09375 183.339844 169.824219 182.765625 169.578125 182.179688 C 169.335938 181.589844 169.125 180.992188 168.9375 180.386719 C 168.753906 179.777344 168.601562 179.160156 168.476562 178.535156 C 168.351562 177.914062 168.257812 177.285156 168.195312 176.652344 C 168.132812 176.019531 168.101562 175.386719 168.101562 174.75 C 168.101562 174.113281 168.132812 173.480469 168.195312 172.847656 C 168.257812 172.214844 168.351562 171.585938 168.476562 170.960938 C 168.601562 170.339844 168.753906 169.722656 168.9375 169.113281 C 169.125 168.507812 169.335938 167.910156 169.578125 167.320312 C 169.824219 166.734375 170.09375 166.160156 170.394531 165.597656 C 170.691406 165.039062 171.019531 164.492188 171.371094 163.964844 C 171.726562 163.4375 172.101562 162.925781 172.507812 162.433594 C 172.910156 161.945312 173.335938 161.472656 173.785156 161.023438 C 174.234375 160.574219 174.703125 160.148438 175.195312 159.746094 C 175.6875 159.339844 176.195312 158.960938 176.722656 158.609375 C 177.253906 158.257812 177.796875 157.929688 178.355469 157.628906 C 178.917969 157.332031 179.492188 157.058594 180.078125 156.816406 C 180.664062 156.570312 181.261719 156.359375 181.871094 156.171875 C 182.476562 155.988281 183.09375 155.835938 183.714844 155.710938 C 184.339844 155.585938 184.964844 155.492188 185.597656 155.429688 C 186.230469 155.367188 186.863281 155.335938 187.5 155.335938 C 188.136719 155.335938 188.769531 155.367188 189.402344 155.429688 C 190.035156 155.492188 190.660156 155.585938 191.285156 155.710938 C 191.90625 155.835938 192.523438 155.988281 193.128906 156.171875 C 193.738281 156.359375 194.335938 156.570312 194.921875 156.816406 C 195.507812 157.058594 196.082031 157.332031 196.644531 157.628906 C 197.203125 157.929688 197.746094 158.257812 198.277344 158.609375 C 198.804688 158.960938 199.3125 159.339844 199.804688 159.746094 C 200.296875 160.148438 200.765625 160.574219 201.214844 161.023438 C 201.664062 161.472656 202.089844 161.945312 202.492188 162.433594 C 202.898438 162.925781 203.273438 163.4375 203.628906 163.964844 C 203.980469 164.492188 204.308594 165.039062 204.605469 165.597656 C 204.90625 166.160156 205.175781 166.734375 205.421875 167.320312 C 205.664062 167.910156 205.875 168.507812 206.0625 169.113281 C 206.246094 169.722656 206.398438 170.339844 206.523438 170.960938 C 206.648438 171.585938 206.742188 172.214844 206.804688 172.847656 C 206.867188 173.480469 206.898438 174.113281 206.898438 174.75 Z M 206.898438 174.75 " fill-opacity="1" fill-rule="nonzero"/><path fill="#3397e8" d="M 187.5 12.980469 L 187.5 0.0390625 L 135.777344 32.394531 L 168.992188 53.179688 L 187.5 64.746094 L 187.5 51.804688 C 255.386719 51.804688 310.34375 106.886719 310.34375 174.75 C 310.34375 242.613281 255.386719 297.695312 187.5 297.695312 L 0 297.695312 L 0 336.519531 L 187.5 336.519531 C 189.683594 336.519531 191.863281 336.519531 193.964844 336.355469 C 280.28125 332.960938 349.136719 261.863281 349.136719 174.75 C 349.136719 85.375 276.804688 12.980469 187.5 12.980469 Z M 187.5 12.980469 " fill-opacity="1" fill-rule="nonzero"/><g clip-path="url(#c4e36d236a)"><path fill="#eb423f" d="M 116.378906 317.105469 L 64.65625 284.753906 L 64.65625 297.695312 L 0 297.695312 L 0 336.519531 L 64.65625 336.519531 L 64.65625 349.460938 Z M 116.378906 317.105469 " fill-opacity="1" fill-rule="nonzero"/></g></svg>